name rise44.8762peak52.3436fall86.788.mot
datacolumns 19
datarows 12
range 15.02994500000000 15.04827600000000
endheader
time	ground_force1_vx	ground_force1_vy	ground_force1_vz	ground_force1_px	ground_force1_py	ground_force1_pz	ground_force2_vx	ground_force2_vy	ground_force2_vz	ground_force2_px	ground_force2_py	ground_force2_pz	ground_torque1_x	ground_torque1_y	ground_torque1_z	ground_torque2_x	ground_torque2_y	ground_torque2_z	
15.02994500000000	-3.56863800000000	703.76270099999999	51.03156000000000	0.15618400000000	0.00000000000000	0.12254200000000	0.00000000000000	0.00000000000000	0.00000000000000	0.00000000000000	0.00000000000000	0.00000000000000	0.00000000000000	16.67988300000000	0.00000000000000	0.00000000000000	0.00000000000000	0.00000000000000	
15.03161100000000	-4.21044300000000	705.23148000000003	51.17832200000000	0.15521800000000	0.00000000000000	0.12253400000000	0.00000000000000	0.00000000000000	0.00000000000000	0.00000000000000	0.00000000000000	0.00000000000000	0.00000000000000	16.81401300000000	0.00000000000000	0.00000000000000	0.00000000000000	0.00000000000000	
15.03327700000000	-4.85933300000000	706.73960999999997	51.32853700000000	0.15424000000000	0.00000000000000	0.12252600000000	0.00000000000000	0.00000000000000	0.00000000000000	0.00000000000000	0.00000000000000	0.00000000000000	0.00000000000000	16.95075300000000	0.00000000000000	0.00000000000000	0.00000000000000	0.00000000000000	
15.03493900000000	-5.51525300000000	708.28466400000002	51.48183200000000	0.15324800000000	0.00000000000000	0.12251800000000	0.00000000000000	0.00000000000000	0.00000000000000	0.00000000000000	0.00000000000000	0.00000000000000	0.00000000000000	17.08991600000000	0.00000000000000	0.00000000000000	0.00000000000000	0.00000000000000	
15.03660700000000	-6.17811400000000	709.86425099999997	51.63784300000000	0.15224500000000	0.00000000000000	0.12251000000000	0.00000000000000	0.00000000000000	0.00000000000000	0.00000000000000	0.00000000000000	0.00000000000000	0.00000000000000	17.23131100000000	0.00000000000000	0.00000000000000	0.00000000000000	0.00000000000000	
15.03827400000000	-6.84778900000000	711.47602400000005	51.79621000000000	0.15123000000000	0.00000000000000	0.12250100000000	0.00000000000000	0.00000000000000	0.00000000000000	0.00000000000000	0.00000000000000	0.00000000000000	0.00000000000000	17.37474900000000	0.00000000000000	0.00000000000000	0.00000000000000	0.00000000000000	
15.03994000000000	-7.52411200000000	713.11768500000005	51.95658500000000	0.15020300000000	0.00000000000000	0.12249200000000	0.00000000000000	0.00000000000000	0.00000000000000	0.00000000000000	0.00000000000000	0.00000000000000	0.00000000000000	17.52004100000000	0.00000000000000	0.00000000000000	0.00000000000000	0.00000000000000	
15.04160400000000	-8.20687900000000	714.78699200000005	52.11862700000000	0.14916400000000	0.00000000000000	0.12248200000000	0.00000000000000	0.00000000000000	0.00000000000000	0.00000000000000	0.00000000000000	0.00000000000000	0.00000000000000	17.66699600000000	0.00000000000000	0.00000000000000	0.00000000000000	0.00000000000000	
15.04327800000000	-8.89585200000000	716.48176000000001	52.28200700000000	0.14811500000000	0.00000000000000	0.12247200000000	0.00000000000000	0.00000000000000	0.00000000000000	0.00000000000000	0.00000000000000	0.00000000000000	0.00000000000000	17.81542400000000	0.00000000000000	0.00000000000000	0.00000000000000	0.00000000000000	
15.04494500000000	-9.59075100000000	718.19987300000003	52.44640500000000	0.14705500000000	0.00000000000000	0.12246100000000	0.00000000000000	0.00000000000000	0.00000000000000	0.00000000000000	0.00000000000000	0.00000000000000	0.00000000000000	17.96513400000000	0.00000000000000	0.00000000000000	0.00000000000000	0.00000000000000	
15.04661100000000	-10.29126300000000	719.93927900000006	52.61151700000000	0.14598600000000	0.00000000000000	0.12244900000000	0.00000000000000	0.00000000000000	0.00000000000000	0.00000000000000	0.00000000000000	0.00000000000000	0.00000000000000	18.11593400000000	0.00000000000000	0.00000000000000	0.00000000000000	0.00000000000000	
15.04827600000000	-10.99703700000000	721.69800199999997	52.77704600000000	0.14490700000000	0.00000000000000	0.12243600000000	0.00000000000000	0.00000000000000	0.00000000000000	0.00000000000000	0.00000000000000	0.00000000000000	0.00000000000000	18.26763600000000	0.00000000000000	0.00000000000000	0.00000000000000	0.00000000000000	
